<?xml version="1.0" encoding="iso-8859-1"?>
<!-- Generator: Adobe Illustrator 19.0.0, SVG Export Plug-In . SVG Version: 6.00 Build 0)  -->
<svg version="1.1" id="Layer_1" xmlns="http://www.w3.org/2000/svg" xmlns:xlink="http://www.w3.org/1999/xlink" x="0px" y="0px"
	 viewBox="0 0 512 512" style="enable-background:new 0 0 512 512;" xml:space="preserve">
<g>
	<path style="fill:#9AD14B;" d="M439.677,305.938c16.429,0,29.759,13.318,29.759,29.759c0,16.429-13.33,29.759-29.759,29.759
		c-16.44,0-29.759-13.33-29.759-29.759C409.918,319.256,423.237,305.938,439.677,305.938z"/>
	<path style="fill:#9AD14B;" d="M340.429,305.938c16.44,0,29.759,13.318,29.759,29.759c0,16.429-13.318,29.759-29.759,29.759
		c-16.429,0-29.759-13.33-29.759-29.759C310.67,319.256,323.999,305.938,340.429,305.938z"/>
	<path style="fill:#9AD14B;" d="M171.567,305.938c16.44,0,29.759,13.318,29.759,29.759c0,16.429-13.318,29.759-29.759,29.759
		s-29.759-13.33-29.759-29.759C141.808,319.256,155.127,305.938,171.567,305.938z"/>
	<path style="fill:#9AD14B;" d="M72.33,305.938c16.429,0,29.759,13.318,29.759,29.759c0,16.429-13.33,29.759-29.759,29.759
		c-16.44,0-29.759-13.33-29.759-29.759C42.571,319.256,55.889,305.938,72.33,305.938z"/>
</g>
<polygon style="fill:#2BA5F7;" points="428.178,469.746 428.178,503.581 84.806,503.581 84.806,469.746 242.18,469.746 
	270.815,469.746 "/>
<polygon style="fill:#2197D8;" points="143.706,469.746 143.706,503.581 84.806,503.581 84.806,469.746 111.801,469.746 
	116.713,469.746 "/>
<rect x="242.181" y="146.863" style="fill:#F95428;" width="28.636" height="322.878"/>
<rect x="242.181" y="146.863" style="fill:#E54728;" width="28.636" height="46.547"/>
<polygon style="fill:#F7B239;" points="462.822,103.151 462.822,146.868 462.81,146.868 439.677,146.868 340.429,146.868 
	270.815,146.868 242.18,146.868 171.567,146.868 72.33,146.868 50.151,146.868 50.151,103.151 54.755,103.151 198.305,103.151 
	199.608,103.151 313.365,103.151 314.668,103.151 458.217,103.151 "/>
<polygon style="fill:#E09B2D;" points="135.845,103.151 135.845,146.868 135.843,146.868 131.039,146.868 110.429,146.868 
	95.974,146.868 90.027,146.868 75.364,146.868 54.756,146.868 50.151,146.868 50.151,103.151 51.107,103.151 80.916,103.151 
	81.187,103.151 104.809,103.151 105.08,103.151 134.889,103.151 "/>
<path style="fill:#2BA5F7;" d="M313.365,103.151H199.608c22.886,0,43.336-36.845,56.879-94.723
	c6.772,28.939,15.272,52.623,24.941,69.063C291.085,93.942,301.922,103.151,313.365,103.151z"/>
<path style="fill:#F95428;" d="M458.217,103.151h-143.55h-1.303c-11.443,0-22.28-9.208-31.937-25.66
	c-9.669-16.44-18.17-40.124-24.941-69.063C304.527,66.306,377.026,103.151,458.217,103.151z"/>
<path style="fill:#E54728;" d="M256.486,8.428c-13.543,57.878-33.992,94.723-56.879,94.723h-1.303H54.755
	c40.596,0,79.024-9.208,113.297-25.66C202.336,61.051,232.466,37.367,256.486,8.428z"/>
<path style="fill:#333333;" d="M448.098,298.459v-143.17h14.727c4.652,0,8.422-3.771,8.422-8.422v-43.715
	c0-4.651-3.77-8.422-8.422-8.422h-4.602c-75.733,0-146.903-33.417-195.261-91.685C261.362,1.115,258.986,0,256.481,0
	c-2.505,0-4.88,1.116-6.481,3.044C201.657,61.311,130.493,94.729,54.754,94.729h-4.602c-4.651,0-8.422,3.771-8.422,8.422v43.715
	c0,4.651,3.771,8.422,8.422,8.422h13.75V298.46c-17.013,3.847-29.759,19.075-29.759,37.233c0,21.053,17.128,38.181,38.181,38.181
	s38.181-17.128,38.181-38.181c0-18.159-12.746-33.386-29.759-37.233V155.288h82.398V298.46
	c-17.013,3.847-29.759,19.075-29.759,37.233c0,21.053,17.128,38.181,38.181,38.181s38.181-17.128,38.181-38.181
	c0-18.159-12.746-33.386-29.759-37.233V155.288h53.762v306.033H84.801c-4.651,0-8.422,3.771-8.422,8.422v33.834
	c0,4.651,3.771,8.422,8.422,8.422h343.374c4.652,0,8.422-3.771,8.422-8.422v-33.834c0-4.651-3.77-8.422-8.422-8.422H279.233V155.288
	h52.778V298.46c-17.013,3.847-29.759,19.075-29.759,37.233c0,21.053,17.128,38.181,38.181,38.181
	c21.054,0,38.181-17.128,38.181-38.181c0-18.159-12.746-33.386-29.759-37.233V155.288h82.398V298.46
	c-17.013,3.847-29.759,19.075-29.759,37.233c0,21.053,17.128,38.181,38.181,38.181c21.053,0,38.181-17.128,38.181-38.181
	C477.857,317.533,465.11,302.306,448.098,298.459z M93.661,335.693c0,11.765-9.571,21.337-21.337,21.337
	s-21.337-9.571-21.337-21.337s9.571-21.337,21.337-21.337S93.661,323.928,93.661,335.693z M192.903,335.693
	c0,11.765-9.571,21.337-21.337,21.337s-21.337-9.571-21.337-21.337s9.571-21.337,21.337-21.337S192.903,323.928,192.903,335.693z
	 M361.77,335.693c0,11.765-9.571,21.337-21.337,21.337c-11.765,0-21.336-9.571-21.336-21.337s9.571-21.337,21.336-21.337
	C352.198,314.357,361.77,323.928,361.77,335.693z M364.055,94.729H313.37c-9.957,0-18.921-11.692-24.685-21.502
	c-5.297-9.012-10.316-20.594-14.886-34.229C300.091,63.532,330.77,82.396,364.055,94.729z M256.487,40.35
	c5.272,16.509,11.186,30.371,17.676,41.412c2.897,4.93,5.892,9.252,8.978,12.966h-53.305c3.086-3.715,6.081-8.037,8.978-12.966
	C245.303,70.722,251.216,56.856,256.487,40.35z M239.185,38.984c-4.572,13.644-9.594,25.225-14.893,34.243
	c-5.764,9.809-14.727,21.502-24.683,21.502h-50.684C182.214,82.394,212.895,63.526,239.185,38.984z M58.574,111.573h395.828v26.871
	H58.574V111.573z M419.753,495.155H93.224v-16.989h326.53V495.155z M262.389,461.321h-11.791V155.288h11.791V461.321z
	 M439.676,357.03c-11.765,0-21.337-9.571-21.337-21.337s9.571-21.337,21.337-21.337s21.337,9.571,21.337,21.337
	S451.44,357.03,439.676,357.03z"/>
<g>
</g>
<g>
</g>
<g>
</g>
<g>
</g>
<g>
</g>
<g>
</g>
<g>
</g>
<g>
</g>
<g>
</g>
<g>
</g>
<g>
</g>
<g>
</g>
<g>
</g>
<g>
</g>
<g>
</g>
</svg>
